<svg version="1.0" xmlns="http://www.w3.org/2000/svg"
 width="600.000000pt" height="600.000000pt" viewBox="0 0 600.000000 600.000000"
 preserveAspectRatio="xMidYMid meet">

<g transform="translate(0.000000,600.000000) scale(0.100000,-0.100000)"
fill="current" stroke="current">
<path d="M2697 5014 c-311 -45 -639 -179 -895 -366 l-87 -63 -572 -5 -571 -5
-43 -30 c-27 -19 -54 -50 -71 -84 -27 -51 -28 -60 -28 -192 l0 -139 75 0 75 0
0 128 c0 115 2 130 20 150 l21 22 634 0 634 0 21 -22 c20 -21 20 -31 20 -647
-1 -686 2 -653 -61 -671 -19 -6 -212 -10 -446 -10 l-412 0 -213 -120 -213
-120 -3 570 -2 570 -75 0 -75 0 0 -699 0 -699 266 149 c147 83 267 149 269
147 1 -2 9 -60 19 -130 117 -900 822 -1612 1723 -1742 140 -20 422 -21 558 -1
331 47 638 169 903 360 l91 65 335 0 336 0 310 -174 310 -174 0 474 0 474 -75
0 -75 0 -2 -345 -3 -344 -212 119 -213 120 -412 0 c-235 0 -428 4 -447 10 -63
18 -60 -15 -61 671 0 616 0 626 20 647 l21 22 634 0 634 0 21 -22 c19 -20 20
-34 20 -225 l0 -203 75 0 75 0 0 214 0 214 -28 53 c-17 34 -44 65 -71 84 l-43
30 -196 5 -197 5 -7 85 c-57 692 -461 1304 -1078 1633 -190 101 -437 180 -659
211 -139 20 -437 19 -574 0z m213 -534 l0 -400 -74 0 c-152 0 -444 -40 -623
-85 -51 -12 -93 -20 -93 -16 0 17 83 216 123 297 154 306 382 530 600 589 28
7 55 14 60 14 4 1 7 -179 7 -399z m290 368 c199 -68 396 -276 529 -559 50
-106 135 -328 128 -335 -2 -2 -41 7 -88 21 -190 54 -500 105 -651 105 l-48 0
0 400 0 401 38 -7 c20 -4 62 -15 92 -26z m-837 -125 c-91 -104 -149 -186 -221
-315 l-59 -108 -5 65 c-7 77 -41 143 -95 179 l-36 25 49 31 c95 61 353 180
432 199 2 1 -28 -34 -65 -76z m1317 29 c509 -198 926 -643 1093 -1167 34 -107
72 -273 65 -280 -2 -3 -42 37 -88 87 -161 174 -329 299 -563 418 l-149 76 -54
164 c-90 272 -228 531 -365 684 -59 65 -58 65 61 18z m-770 -1242 l0 -420
-421 0 -421 0 6 23 c3 12 6 173 6 357 l0 336 43 12 c218 62 501 107 700 110
l87 2 0 -420z m380 404 c249 -29 600 -116 619 -153 23 -43 79 -399 95 -598 l6
-73 -470 0 -470 0 0 420 0 420 43 0 c23 0 103 -7 177 -16z m1030 -352 c112
-74 245 -187 324 -275 70 -77 155 -187 156 -199 0 -5 -144 -8 -319 -8 l-319 0
-7 78 c-15 190 -53 464 -72 526 -4 16 9 11 73 -24 44 -23 117 -68 164 -98z
m-1410 -1047 l0 -425 -43 0 c-133 0 -442 51 -612 100 -159 47 -176 53 -184 69
-23 44 -80 402 -96 604 l-6 77 471 0 470 0 0 -425z m996 403 c-3 -13 -6 -176
-6 -364 l0 -341 -62 -17 c-193 -54 -439 -93 -640 -103 l-128 -6 0 426 0 427
421 0 421 0 -6 -22z m-2081 -55 c20 -222 53 -465 71 -527 5 -15 -9 -11 -72 24
-249 135 -469 323 -612 524 l-33 46 320 0 319 0 7 -67z m-403 -415 c133 -107
204 -152 371 -238 l148 -76 55 -165 c91 -274 228 -531 365 -683 59 -65 58 -65
-61 -18 -567 221 -1008 738 -1140 1337 -11 50 -20 97 -20 105 0 8 43 -31 95
-87 52 -55 136 -134 187 -175z m823 -412 c136 -38 343 -73 513 -87 l152 -13 0
-398 0 -399 -37 7 c-294 54 -540 332 -712 801 -22 62 -41 115 -41 119 0 3 8 3
18 0 9 -3 58 -16 107 -30z m1579 -92 c-150 -402 -422 -718 -674 -784 -25 -6
-53 -13 -62 -16 -17 -5 -18 18 -18 394 l0 399 133 6 c161 7 382 38 537 76 63
15 116 26 118 25 2 -1 -13 -46 -34 -100z m111 -399 c14 -25 42 -56 62 -69 l36
-25 -49 -31 c-70 -45 -276 -144 -362 -174 l-73 -26 77 88 c85 96 168 219 229
335 l40 76 7 -65 c4 -42 15 -80 33 -109z"/>
<path d="M3282 4458 l3 -73 73 -3 72 -3 0 76 0 75 -75 0 -76 0 3 -72z"/>
<path d="M4180 4055 l0 -75 75 0 75 0 0 75 0 75 -75 0 -75 0 0 -75z"/>
<path d="M1180 4075 l0 -75 -155 0 -155 0 0 -75 0 -75 65 0 65 0 31 -62 c17
-35 52 -91 76 -126 44 -62 45 -64 26 -84 -23 -27 -100 -100 -133 -126 l-24
-20 42 -56 c24 -31 47 -56 51 -56 5 0 49 35 98 78 l88 78 89 -78 c48 -43 92
-78 97 -78 5 0 27 25 50 55 l42 56 -63 57 c-35 31 -69 61 -76 65 -8 4 -18 17
-24 28 -9 16 -3 30 33 82 25 34 59 90 76 125 l31 62 65 0 65 0 0 75 0 75 -155
0 -155 0 0 75 0 75 -75 0 -75 0 0 -75z m160 -232 c-1 -14 -77 -118 -86 -117
-9 1 -83 104 -84 117 0 4 38 7 85 7 47 0 85 -3 85 -7z"/>
<path d="M4647 2613 c-103 -258 -267 -707 -260 -712 16 -15 128 -52 131 -44 2
4 17 44 35 88 l32 80 140 3 140 3 34 -91 c19 -52 38 -89 45 -87 6 2 35 12 65
23 29 10 55 23 57 29 2 5 -59 174 -135 375 l-138 365 -65 3 -65 3 -16 -38z
m137 -365 l25 -68 -84 0 -83 0 39 101 c21 55 39 103 40 107 1 10 33 -62 63
-140z"/>
<path d="M5400 2260 l0 -80 75 0 75 0 0 80 0 80 -75 0 -75 0 0 -80z"/>
</g>
</svg>
